<?xml version="1.0" encoding="utf-8"?>
<!-- Generator: Adobe Illustrator 19.2.0, SVG Export Plug-In . SVG Version: 6.00 Build 0)  -->
<svg version="1.1" id="Layer_1" xmlns="http://www.w3.org/2000/svg" xmlns:xlink="http://www.w3.org/1999/xlink" x="0px" y="0px"
	 viewBox="0 0 722 400" style="enable-background:new 0 0 722 400;" xml:space="preserve">
<style type="text/css">
	.st0{enable-background:new    ;}
</style>
<g class="st0">
	<path d="M48.5,198.6V66.9H9.8V50.3c23.2,0,34.2-5.9,40.3-15.8c4-6.1,5.3-13.9,5.6-16h17.9v180H48.5z"/>
</g>
<g class="st0">
	<path d="M201,70.9l-9.3,16.3c-5.3,9.6-10.4,19.2-15.2,29.1c-3.5,7.2-6.7,14.4-9.9,21.6c-3.5,8-6.9,16-9.6,24.3
		c-2.1,6.4-3.7,12.8-5.1,19.2c-1.3,5.6-2.4,11.2-3.2,17.1h-28.3c5.1-40.1,33.4-90.3,54.5-123.1l8-12.6c7.7-12,8.8-14.2,8.8-23h-71.3
		v34.2h-19.2V18.5h110.3v25.9C211.5,54.3,209.1,56.7,201,70.9z"/>
</g>
<g class="st0">
	<path d="M319.6,198.6l-45.1-60.4l-15.2,16v44.3h-21.6V10h21.6v116.2l50.2-53.4h26.2l-46.7,49.7l57.4,76.1H319.6z"/>
</g>
<g class="st0">
	<path d="M488.4,198.6v-86.3H385.9v86.3H361V10h24.8v80.1h102.6V10h25.4v188.6H488.4z"/>
</g>
<g class="st0">
	<path d="M535.7,198.6v-17.6l72.4-89.7h-65.4V72.8h91.9v17.1l-73.2,91.1h74.8v17.6H535.7z"/>
</g>
</svg>
