<?xml version="1.0" encoding="utf-8"?>
<!-- Generator: Adobe Illustrator 19.2.0, SVG Export Plug-In . SVG Version: 6.00 Build 0)  -->
<svg version="1.1" id="Layer_1" xmlns="http://www.w3.org/2000/svg" xmlns:xlink="http://www.w3.org/1999/xlink" x="0px" y="0px"
	 viewBox="0 0 722 400" style="enable-background:new 0 0 722 400;" xml:space="preserve">
<style type="text/css">
	.st0{enable-background:new    ;}
</style>
<g class="st0">
	<path d="M131.3,171.3c-7.2,13.1-23.5,28.8-57.7,28.8c-7.7,0-38.7-0.5-55.3-25.6c-8-12.3-8.8-24-8.8-29.6c0-12.3,4.8-25.9,13.6-34.7
		c2.4-2.4,5.3-4.5,11-8.3c-13.9-9.3-20-20.6-20-37.1c0-13.9,4.8-22.4,8-27.2C30.3,26,44.8,16.9,73.9,16.9c18.7,0,38.7,3.2,50.5,19.8
		c8.3,11.2,8.5,23.2,8.5,28c0,5.3-0.5,20.6-13.4,32.1c-2.4,2.1-4.3,3.5-6.9,5.1c9.1,5.6,25.4,15.5,25.4,42.5
		C138,148.9,137.7,160.1,131.3,171.3z M103.5,121.6c-10.1-9.1-28-9.1-30.7-9.1c-30.7,0-39,18.4-39,32.1c0,3.2,0.3,11,5.3,18.4
		c10.4,15,30.7,15.2,35,15.2c3.7,0,20.3-0.3,30.4-11c8.3-8.5,8.8-19.2,8.5-23.2C113.1,140.3,112.6,129.4,103.5,121.6z M98.7,43.9
		c-9.1-6.4-24.3-6.4-26.2-6.4c-10.7,0-23.2,2.4-30.2,11.8c-3.2,4.3-4.5,9.3-4.5,15c0,2.4,0.3,8.3,3.7,14.2
		c4.5,8.3,13.1,14.2,32.1,14.2c19.2,0,27.8-6.1,32.1-14.7c1.3-2.4,3.2-6.9,3.2-13.4C108.9,61,107.8,50.3,98.7,43.9z"/>
</g>
<g class="st0">
	<path d="M288.6,198.6v-86.3H186v86.3h-24.8V10H186v80.1h102.6V10H314v188.6H288.6z"/>
</g>
<g class="st0">
	<path d="M335.9,198.6V181l72.4-89.7h-65.4V72.8h91.9v17.1L361.6,181h74.8v17.6H335.9z"/>
</g>
</svg>
